# xmcd
#
# Track frame offsets: 
#        150
#        14604
#        40508
#        65348
#        91654
#        109149
#        129571
#        148042
#        157845
#        173140
#
# Disc length: 2550 seconds
#
# Revision: 0
# Processed by: cddbd v1.5.2PL0 Copyright (c) Steve Scherf et al.
# Submitted via: ExactAudioCopy v1.0b3
#
DISCID=7809f40a
DTITLE=Anna Hamilton Trio - Dreamer
DYEAR=2008
DGENRE=Blues
TTITLE0=Anna Hamiltron Trio - Dreamer
TTITLE1=Not Here
TTITLE2=Scary
TTITLE3=Told You So
TTITLE4=Down
TTITLE5=Lowlife
TTITLE6=Sweepin' Blues
TTITLE7=Sparrow
TTITLE8=Friends
TTITLE9=Flame
EXTD=
EXTT0=
EXTT1=
EXTT2=
EXTT3=
EXTT4=
EXTT5=
EXTT6=
EXTT7=
EXTT8=
EXTT9=
PLAYORDER=
